<?xml version="1.0" standalone="no"?><!DOCTYPE svg PUBLIC "-//W3C//DTD SVG 1.1//EN" "http://www.w3.org/Graphics/SVG/1.1/DTD/svg11.dtd"><svg t="1716216051641" class="icon" viewBox="0 0 1024 1024" version="1.1" xmlns="http://www.w3.org/2000/svg" p-id="2827" xmlns:xlink="http://www.w3.org/1999/xlink" width="200" height="200"><path d="M596.135869 761.889574h151.081967a33.57377 33.57377 0 1 0 0-67.147541h-151.081967a33.57377 33.57377 0 1 0 0 67.147541zM596.135869 644.381377h151.081967a33.57377 33.57377 0 1 0 0-67.147541h-151.081967a33.57377 33.57377 0 1 0 0 67.147541zM596.135869 399.830033h151.081967a33.57377 33.57377 0 1 0 0-67.147541h-151.081967a33.57377 33.57377 0 1 0 0 67.147541z" fill="#50B446" p-id="2828"></path><path d="M300.770623 400.770098h151.081967a33.57377 33.57377 0 1 0 0-67.147541h-151.081967a33.57377 33.57377 0 1 0 0 67.147541z" fill="#50B446" p-id="2829"></path><path d="M409.885377 442.737311v-151.081967a33.57377 33.57377 0 0 0-67.147541 0v151.081967a33.57377 33.57377 0 1 0 67.147541 0z" fill="#50B446" p-id="2830"></path><path d="M341.697049 764.558689l106.831738-106.831738a33.57377 33.57377 0 1 0-47.473312-47.473312l-106.831737 106.831738a33.57377 33.57377 0 1 0 47.473311 47.473312z" fill="#50B446" p-id="2831"></path><path d="M448.545574 717.085377l-106.848525-106.831738a33.57377 33.57377 0 1 0-47.473311 47.473312l106.831737 106.831738a33.57377 33.57377 0 1 0 47.473312-47.473312z" fill="#50B446" p-id="2832"></path><path d="M832.008393 111.901377a100.721311 100.721311 0 0 1 100.721312 100.721312v621.114754a100.721311 100.721311 0 0 1-100.721312 100.721311h-621.114754a100.721311 100.721311 0 0 1-100.721311-100.721311v-621.114754a100.721311 100.721311 0 0 1 100.721311-100.721312h621.114754z m0 67.147541h-621.114754a33.57377 33.57377 0 0 0-33.57377 33.573771v621.114754a33.57377 33.57377 0 0 0 33.57377 33.57377h621.114754a33.57377 33.57377 0 0 0 33.573771-33.57377v-621.114754a33.57377 33.57377 0 0 0-33.573771-33.573771z" fill="#2F2F2F" p-id="2833"></path></svg>